<svg width="12" height="18" viewBox="0 0 12 18" fill="none" xmlns="http://www.w3.org/2000/svg">
<g clip-path="url(#clip0_507_2398)">
<path opacity="0.66" d="M5.52468 3.47539C5.5249 3.34935 5.57496 3.22852 5.66394 3.13926C5.70801 3.09505 5.76038 3.05998 5.81805 3.03608C5.87572 3.01219 5.93755 2.99992 5.99997 3C6.06241 2.99997 6.12424 3.01228 6.1819 3.03623L6.18552 3.03789C6.24179 3.06174 6.29294 3.09618 6.3362 3.13936C6.38042 3.18344 6.41548 3.23583 6.43938 3.29352C6.46328 3.35121 6.47554 3.41305 6.47546 3.47549C6.47546 3.47842 6.47526 3.48135 6.47487 3.48418V8.52519H11.5157C11.5187 8.52485 11.5216 8.52466 11.5245 8.52461C11.5886 8.52461 11.65 8.5375 11.7063 8.56084C11.7076 8.56133 11.7087 8.56191 11.7099 8.5625C11.7662 8.58634 11.8173 8.62079 11.8606 8.66396C11.9272 8.73027 11.9725 8.81489 11.9909 8.90705C12.0093 8.99921 11.9999 9.09476 11.9638 9.18154C11.9155 9.29814 11.8229 9.3908 11.7063 9.43916V9.43926C11.6487 9.46311 11.5869 9.47539 11.5245 9.47539C11.5216 9.47539 11.5187 9.47519 11.5157 9.4748L6.47487 9.4749V14.5158C6.47526 14.5187 6.47546 14.5217 6.47546 14.5246C6.47546 14.5887 6.46247 14.6502 6.43923 14.7063L6.43747 14.71C6.38878 14.8255 6.29632 14.917 6.18032 14.9646C6.06432 15.0122 5.93421 15.0119 5.81843 14.9638C5.76064 14.94 5.70813 14.905 5.66392 14.8608C5.61971 14.8166 5.58467 14.7641 5.56081 14.7063C5.53687 14.6487 5.52446 14.587 5.52449 14.5246C5.52448 14.5217 5.52468 14.5187 5.52507 14.5158V9.4749H0.484196C0.481283 9.4753 0.478347 9.47549 0.475407 9.47549C0.413098 9.47548 0.351403 9.46317 0.293866 9.43926C0.236078 9.41545 0.183568 9.38045 0.139356 9.33627C0.0951446 9.29209 0.0601042 9.23961 0.0362507 9.18184C0.0123194 9.12425 0 9.06251 0 9.00015C0 8.93779 0.0123194 8.87604 0.0362507 8.81846C0.0605669 8.75986 0.0958206 8.70742 0.139375 8.66387C0.183467 8.61966 0.23586 8.58459 0.293544 8.5607C0.351228 8.5368 0.413066 8.52453 0.475505 8.52461C0.478532 8.52461 0.481462 8.5248 0.484294 8.52519H5.52527V3.48418C5.52488 3.48127 5.52468 3.47833 5.52468 3.47539Z" fill="#333333"/>
</g>
<defs>
<clipPath id="clip0_507_2398">
<rect width="12" height="12" fill="white" transform="translate(0 3)"/>
</clipPath>
</defs>
</svg>
