<svg width="13" height="12" viewBox="0 0 13 12" fill="none" xmlns="http://www.w3.org/2000/svg">
<g clip-path="url(#clip0_505_2395)">
<path d="M2.24266 2.42961C2.15369 2.34034 2.10365 2.2195 2.10345 2.09346C2.10335 2.03104 2.11559 1.96921 2.13947 1.91153C2.16335 1.85385 2.19839 1.80147 2.24259 1.75738C2.28672 1.71321 2.33914 1.67819 2.39685 1.65435L2.40058 1.65297C2.45723 1.63004 2.51776 1.61823 2.57888 1.61817C2.64132 1.61808 2.70316 1.63033 2.76085 1.65422C2.81854 1.67811 2.87094 1.71317 2.91503 1.75738C2.9171 1.75945 2.91903 1.76166 2.92076 1.76394L6.4853 5.32848L10.0497 1.76404C10.0516 1.76174 10.0535 1.75952 10.0555 1.75741C10.1008 1.71211 10.1534 1.67779 10.2097 1.65452C10.211 1.6539 10.2121 1.65356 10.2134 1.65314C10.27 1.63021 10.3306 1.6184 10.3917 1.61834C10.4857 1.61814 10.5776 1.64589 10.6557 1.69806C10.7339 1.75023 10.7948 1.82447 10.8307 1.91133C10.8789 2.02795 10.879 2.15896 10.8307 2.27559L10.8308 2.27566C10.8069 2.33327 10.7719 2.38562 10.7278 2.42971C10.7258 2.43179 10.7235 2.43373 10.7212 2.43552L7.15684 6.00002L10.7213 9.56449C10.7236 9.56627 10.7259 9.56821 10.7279 9.57029C10.7732 9.61559 10.8076 9.66828 10.8308 9.72442L10.8321 9.72821C10.8794 9.84434 10.8788 9.97445 10.8304 10.0901C10.782 10.2058 10.6898 10.2976 10.5739 10.3454C10.5162 10.3694 10.4543 10.3818 10.3918 10.3818C10.3293 10.3819 10.2674 10.3695 10.2097 10.3455C10.152 10.3217 10.0996 10.2869 10.0555 10.2427C10.0534 10.2406 10.0515 10.2384 10.0497 10.2361L6.48523 6.67163L2.92079 10.2361C2.91902 10.2384 2.91708 10.2406 2.91499 10.2427C2.87093 10.2868 2.8186 10.3217 2.76101 10.3454C2.70331 10.3695 2.64143 10.3819 2.57893 10.3819C2.51643 10.3819 2.45454 10.3696 2.39682 10.3456C2.33918 10.3218 2.28681 10.2868 2.24271 10.2427C2.19862 10.1986 2.16367 10.1463 2.13987 10.0886C2.11563 10.03 2.10348 9.968 2.10348 9.90641C2.1034 9.84397 2.11565 9.78213 2.13954 9.72444C2.16343 9.66675 2.19849 9.61435 2.24269 9.57026C2.24483 9.56811 2.24704 9.56618 2.24932 9.56446L5.81383 5.99995L2.24929 2.43541C2.24696 2.43363 2.24474 2.43169 2.24266 2.42961Z" fill="black"/>
</g>
<defs>
<clipPath id="clip0_505_2395">
<rect width="12" height="12" fill="white" transform="translate(0.485291)"/>
</clipPath>
</defs>
</svg>
