<svg width="26" height="25" viewBox="0 0 26 25" fill="none" xmlns="http://www.w3.org/2000/svg">
<g clip-path="url(#clip0_500_2273)">
<path d="M12.0227 0.97747C12.0232 0.71832 12.1261 0.469865 12.3091 0.286334C12.3997 0.195429 12.5074 0.123334 12.6259 0.0741942C12.7445 0.0250546 12.8716 -0.000159857 13 7.62562e-07C13.1284 -6.82252e-05 13.2555 0.0252489 13.3741 0.0744956L13.3815 0.0779091C13.4972 0.126937 13.6024 0.197767 13.6913 0.286535C13.7822 0.377181 13.8543 0.484907 13.9035 0.603518C13.9526 0.722129 13.9778 0.849284 13.9776 0.977671C13.9776 0.983694 13.9772 0.989718 13.9764 0.995541V11.3606H24.3412C24.3472 11.3599 24.3532 11.3595 24.3593 11.3594C24.491 11.3594 24.6173 11.3859 24.7329 11.4339C24.7357 11.4349 24.738 11.4361 24.7404 11.4373C24.8561 11.4863 24.9612 11.5571 25.0502 11.6459C25.1871 11.7822 25.2804 11.9562 25.3182 12.1457C25.356 12.3352 25.3366 12.5317 25.2624 12.7101C25.1631 12.9499 24.9726 13.1404 24.7329 13.2398V13.24C24.6145 13.2891 24.4875 13.3143 24.3593 13.3143C24.3532 13.3143 24.3472 13.3139 24.3412 13.3131L13.9764 13.3133V23.6781C13.9772 23.6841 13.9776 23.6902 13.9776 23.6962C13.9776 23.8279 13.9509 23.9544 13.9032 24.0699L13.8995 24.0773C13.7994 24.3149 13.6093 24.5031 13.3708 24.6009C13.1323 24.6987 12.8648 24.6981 12.6267 24.5992C12.5079 24.5502 12.3999 24.4782 12.309 24.3874C12.2181 24.2966 12.1461 24.1887 12.097 24.0699C12.0478 23.9514 12.0223 23.8244 12.0223 23.6962C12.0223 23.6902 12.0227 23.6841 12.0235 23.6781V13.3133H1.65878C1.65279 13.3141 1.64676 13.3145 1.64071 13.3145C1.51259 13.3145 1.38574 13.2892 1.26744 13.24C1.14862 13.1911 1.04065 13.1191 0.949744 13.0282C0.858838 12.9374 0.786791 12.8295 0.737745 12.7107C0.688538 12.5923 0.663208 12.4654 0.663208 12.3371C0.663208 12.2089 0.688538 12.082 0.737745 11.9636C0.787742 11.8431 0.860228 11.7353 0.949782 11.6457C1.04044 11.5548 1.14817 11.4827 1.26678 11.4336C1.38538 11.3844 1.51253 11.3592 1.64091 11.3594C1.64714 11.3594 1.65316 11.3598 1.65898 11.3606H12.0239V0.995541C12.0231 0.989551 12.0227 0.983514 12.0227 0.97747Z" fill="#F5F5F5"/>
</g>
<defs>
<clipPath id="clip0_500_2273">
<rect width="24.6737" height="24.6737" fill="white" transform="translate(0.663208)"/>
</clipPath>
</defs>
</svg>
