<svg width="20" height="20" viewBox="0 0 20 20" fill="none" xmlns="http://www.w3.org/2000/svg">
<path d="M15.9253 5.55605C16.1141 5.55625 16.2956 5.62854 16.4329 5.75813C16.5702 5.88773 16.6528 6.06484 16.6638 6.2533C16.6749 6.44175 16.6136 6.62732 16.4924 6.77208C16.3713 6.91685 16.1994 7.00988 16.0119 7.03218L15.9253 7.03736H15.8653L15.1846 15.1846C15.1847 15.7514 14.9681 16.2967 14.5793 16.7091C14.1905 17.1214 13.6588 17.3696 13.093 17.4029L12.9626 17.4066H7.03737C5.8538 17.4066 4.8865 16.4815 4.82132 15.3698L4.81762 15.2461L4.13399 7.03736H4.07474C3.88596 7.03715 3.70438 6.96487 3.56711 6.83528C3.42984 6.70568 3.34724 6.52857 3.33617 6.34011C3.32511 6.15166 3.38643 5.96609 3.50759 5.82133C3.62875 5.67656 3.80062 5.58353 3.98808 5.56123L4.07474 5.55605H15.9253ZM11.4813 2.59341C11.8742 2.59341 12.251 2.74948 12.5288 3.02728C12.8066 3.30508 12.9626 3.68186 12.9626 4.07473C12.9624 4.26351 12.8901 4.44508 12.7606 4.58235C12.631 4.71962 12.4538 4.80223 12.2654 4.81329C12.0769 4.82436 11.8914 4.76304 11.7466 4.64188C11.6018 4.52071 11.5088 4.34884 11.4865 4.16139L11.4813 4.07473H8.51869L8.51351 4.16139C8.49121 4.34884 8.39817 4.52071 8.25341 4.64188C8.10865 4.76304 7.92308 4.82436 7.73463 4.81329C7.54617 4.80223 7.36905 4.71962 7.23946 4.58235C7.10987 4.44508 7.03758 4.26351 7.03737 4.07473C7.03726 3.70101 7.1784 3.34106 7.43251 3.06703C7.68663 2.793 8.03493 2.62514 8.40759 2.59711L8.51869 2.59341H11.4813Z" fill="#323232"/>
</svg>
